<svg xmlns="http://www.w3.org/2000/svg" width="32" height="32" viewBox="0 0 400 400"><defs><style>.cls-1{fill:#db4437;}.cls-2{fill:#fff;}</style></defs><g id="ICON"><rect class="cls-1" width="400" height="400" rx="15" ry="15"/><path class="cls-2" d="M142,180v40s38.8-.05,54.6-.05C188,245.88,174.74,260,142,260c-33.14,0-59-26.86-59-60s25.86-60,59-60c17.52,0,28.84,6.16,39.21,14.74,8.31-8.31,7.61-9.49,28.75-29.45A101,101,0,1,0,142,301c83.38,0,103.76-72.6,97-121Zm182,2V147H299v35H263v25h36v36h25V207h35V182Z"/></g></svg>