<svg xmlns="http://www.w3.org/2000/svg" viewBox="0 0 100 100"><path fill="#FFF" d="M0 0h100v100.1H0V0z"/><path fill="#D8D8D8" d="M0 0h50.3v17.3H0V0z"/><path fill="#444" d="M50.3 0H100v17.3H50.3V0z"/><path fill="#E10000" d="M0 78.4h100v21.7H0V78.4z"/><path fill="#080808" d="M9.8 55.3l1.8 12.4h.1l2-12.4h3.2l2 12.4h.1l1.8-12.4H24L21 72h-3.8l-1.8-12.2h-.1L13.4 72H9.7L6.6 55.3h3.2zm19.5 4.8c.1-1.1.4-2 .8-2.7.4-.8 1-1.3 1.7-1.8.7-.4 1.8-.7 3.1-.7s2.3.2 3.1.7c.7.4 1.3 1 1.7 1.8.4.8.7 1.7.8 2.7.1 1.1.2 2.3.2 3.5 0 1.3-.1 2.4-.2 3.5s-.4 2-.8 2.7c-.4.8-1 1.3-1.7 1.8-.7.4-1.8.6-3.1.6s-2.3-.2-3.1-.6c-.7-.4-1.3-1-1.7-1.8-.4-.8-.7-1.7-.8-2.7s-.2-2.3-.2-3.5c0-1.2 0-2.4.2-3.5zm3.2 6.4c.1.8.2 1.4.3 2 .2.5.4.9.7 1.1.3.2.7.4 1.2.4s.9-.1 1.2-.4c.3-.2.5-.6.7-1.1s.2-1.2.3-2c.1-.8.1-1.8.1-2.9 0-1.1 0-2.1-.1-2.9-.1-.8-.2-1.4-.3-2-.2-.5-.4-.9-.7-1.1-.3-.2-.7-.4-1.2-.4s-.9.1-1.2.4c-.3.2-.5.6-.7 1.1-.2.5-.3 1.2-.3 2-.1.8-.1 1.7-.1 2.9s.1 2.1.1 2.9zm21.4-11.2c1.4 0 2.5.4 3.3 1 .8.7 1.2 1.8 1.2 3.2 0 1.1-.2 2.1-.7 2.7-.4.7-1.2 1.2-2.1 1.4v.1c.9.1 1.5.4 1.8.8.4.4.6 1.1.7 2 .1.3.1.7.1 1 0 .4 0 .8.1 1.2.1.9.1 1.6.1 2 .1.5.3.8.6 1v.3h-3.7c-.2-.2-.3-.5-.3-.8-.1-.3-.1-.6-.1-1l-.2-3.2c-.1-.7-.2-1.2-.5-1.5-.3-.4-.8-.5-1.5-.5h-1.8v7h-3.4V55.3h6.4zm-1.5 7.3c.8 0 1.5-.2 1.9-.5.4-.4.7-1 .7-2 0-1.5-.8-2.3-2.3-2.3h-1.6v4.8h1.3zm14.1-7.3h3.4v14h6V72h-9.3V55.3zm21.3 0c1.2 0 2.1.2 2.8.5.7.4 1.3.9 1.7 1.6.4.7.7 1.6.8 2.6s.2 2.1.2 3.4c0 1.5-.1 2.7-.3 3.8-.2 1.1-.5 2-.9 2.7s-1 1.2-1.8 1.6-1.6.5-2.8.5h-5.3V55.3h5.6zm-.6 14.2c.6 0 1.1-.1 1.5-.3.4-.2.6-.5.9-1 .2-.5.4-1.1.4-1.8.1-.8.1-1.7.1-2.9 0-1 0-1.8-.1-2.5s-.2-1.3-.4-1.8-.5-.9-.9-1.1c-.4-.2-.9-.4-1.5-.4h-1.4v11.8h1.4zM31.5 24.1c-1.9-.7-3.9.4-4.6 2.2l-3.2 9.3-6.1-9.8c-.4-.8-1.1-1.4-2-1.7-1.9-.7-3.9.4-4.6 2.2L5.5 42c-.6 2 .4 4 2.3 4.6 1.9.7 3.9-.4 4.6-2.2l3.2-9.3 6.1 9.8c.4.8 1.1 1.4 2 1.7 1.9.7 3.9-.4 4.6-2.2l5.5-15.8c.6-1.8-.4-3.9-2.3-4.5zm58.8 16.6l-4.6-4.8 8.4-5.4c1.6-1 2.1-3.2 1-4.8s-3.2-2.1-4.8-1L79 31.9l1.2-3.3c.7-1.9-.4-3.9-2.2-4.6-1.9-.7-3.9.4-4.6 2.2L67.9 42c-.7 1.9.4 3.9 2.2 4.6 1.9.7 3.9-.4 4.6-2.2l2.5-7.1 8 8.4c1.3 1.4 3.6 1.5 5 .1 1.4-1.5 1.4-3.7.1-5.1zM62.7 24.1c-1.9-.7-3.9.4-4.6 2.2l-2 5.7h-8.2l1.2-3.4c.7-1.9-.4-3.9-2.2-4.6-1.9-.7-3.9.4-4.6 2.2L36.8 42c-.7 1.9.4 3.9 2.3 4.6s3.9-.4 4.6-2.2l2-5.9h8.2L52.7 42c-.7 1.9.4 3.9 2.2 4.6 1.9.7 3.9-.4 4.6-2.2L65 28.6c.6-1.8-.4-3.9-2.3-4.5z"/><path fill="#080808" d="M31.5 24.1c-1.9-.7-3.9.4-4.6 2.2l-3.2 9.3-6.1-9.8c-.4-.8-1.1-1.4-2-1.7-1.9-.7-3.9.4-4.6 2.2L5.5 42c-.6 2 .4 4 2.3 4.6 1.9.7 3.9-.4 4.6-2.2l3.2-9.3 6.1 9.8c.4.8 1.1 1.4 2 1.7 1.9.7 3.9-.4 4.6-2.2l5.5-15.8c.6-1.8-.4-3.9-2.3-4.5zm58.8 16.6l-4.6-4.8 8.4-5.4c1.6-1 2.1-3.2 1-4.8s-3.2-2.1-4.8-1L79 31.9l1.2-3.3c.7-1.9-.4-3.9-2.2-4.6-1.9-.7-3.9.4-4.6 2.2L67.9 42c-.7 1.9.4 3.9 2.2 4.6 1.9.7 3.9-.4 4.6-2.2l2.5-7.1 8 8.4c1.3 1.4 3.6 1.5 5 .1 1.4-1.5 1.4-3.7.1-5.1zM62.7 24.1c-1.9-.7-3.9.4-4.6 2.2l-2 5.7h-8.2l1.2-3.4c.7-1.9-.4-3.9-2.2-4.6-1.9-.7-3.9.4-4.6 2.2L36.8 42c-.7 1.9.4 3.9 2.3 4.6s3.9-.4 4.6-2.2l2-5.9h8.2L52.7 42c-.7 1.9.4 3.9 2.2 4.6 1.9.7 3.9-.4 4.6-2.2L65 28.6c.6-1.8-.4-3.9-2.3-4.5z"/><g><path fill="#FFF" d="M8.3 88.9H6.8v-1.2h1.5V87c0-1.5.9-2 2.6-2 .4 0 .8 0 1.2.1v1.2h-.5c-.8 0-1.1.2-1.1.7v.7h1.7v1.2h-1.8v6.8H8.3v-6.8zm4.8-1.1h2.1V89h.1c.5-.9 1.2-1.5 2.4-1.5.2 0 .4 0 .5.1v1.6c-.2 0-.5-.1-.9-.1-.9 0-2.1.3-2.1 1.8v4.8h-2.1v-7.9zm9.5-.2c3 0 3.8 1.7 3.8 4.2s-1 4.2-3.8 4.2-3.8-1.7-3.8-4.2.8-4.2 3.8-4.2zm0 7.1c1.5 0 1.8-1 1.8-3 0-1.8-.2-3-1.8-3-1.5 0-1.8 1.2-1.8 3 0 2.1.3 3 1.8 3zm5.6-6.9h2v.9h.1c.5-.7 1.5-1.2 2.4-1.2 1.5 0 2.1.5 2.4 1.2.6-.8 1.3-1.2 2.6-1.2 1.5 0 2.5.5 2.5 2.1v6h-2.1v-5.5c0-1-.4-1.5-1.2-1.5-.9 0-1.6.5-1.6 1.5v5.4h-2.1V90c0-1-.4-1.5-1.3-1.5-.8 0-1.6.5-1.6 1.5v5.4h-2.1v-7.6zm20.2 4.7v.5c0 .9.2 1.6 1.5 1.6 1.5 0 1.5-1 1.5-2.1v-7.4h2.2v7.7c0 2.3-1.5 3.1-3.7 3.1-2.8 0-3.4-1.3-3.5-2.7v-.7h2zm9.9-7.3h2.8l3.6 10.6h-2.3l-.9-2.6h-4l-.9 2.6h-2.3l4-10.6zm2.9 6.6l-1.6-5.2h-.1l-1.6 5.2h3.3zm4.5-6.6H70c2.6 0 3.8 1.3 3.8 3.1 0 1.9-1.5 3.1-4 3.1h-1.9v4.4h-2.2V85.2zm2.2 4.9h1.5c1.2 0 2.2-.5 2.2-1.8 0-1.2-.6-1.8-2.3-1.8h-1.4v3.6zm9.3-4.9H80l3.6 10.6h-2.3l-.9-2.6h-4l-.9 2.6h-2.3l4-10.6zm2.9 6.6l-1.6-5.2h-.1l-1.6 5.2h3.3zm4.5-6.6h2.7l4 7.9h.1v-7.9h2.1v10.6h-2.7l-4-8.1h-.1v8.1h-2.1V85.2z"/></g></svg>